<svg width="1200" height="480" viewBox="0 0 1200 480" fill="none" xmlns="http://www.w3.org/2000/svg">
<rect width="1200" height="480" fill="black"/>
<g clip-path="url(#clip0_1824_1434)">
<path d="M132.921 191.435H228.101V218.009L192.306 220.742C134.508 225.028 116.4 240.25 116.4 282.832V291.427C116.4 322.657 138.428 341.4 172.262 341.4C199.003 341.4 214.264 335.145 233.234 315.916H236.291V336.234H274.443V149.965H132.921V191.435ZM228.101 281.257C216.434 292.979 198.607 300.787 184.046 300.787C168.319 300.787 161.645 294.926 162.019 282.044C162.415 264.066 169.019 259.78 199.353 257.046L228.054 254.312L228.101 281.257Z" fill="#FF8800"/>
<path d="M1026.97 225.028L998.641 222.248C982.913 220.696 978.97 216.781 978.97 204.293C978.97 190.23 984.477 186.709 1006.5 186.709C1026.17 186.709 1031.68 189.837 1034.51 203.112H1078.56C1077.37 158.583 1063.6 147.277 1008.93 147.277C949.149 147.277 934.262 158.583 934.262 204.293C934.262 245.995 945.275 257.394 989.727 261.68L1012.94 263.997C1033.78 265.966 1038.89 269.858 1038.89 282.369C1038.89 297.59 1032.59 301.505 1007.04 301.505C984.617 301.505 978.713 297.984 977.547 283.527H932.955C934.122 329.608 948.286 341.33 1004.94 341.33C1067.94 341.33 1083.6 328.843 1083.6 278.059C1083.6 240.25 1072.19 229.314 1026.97 225.028Z" fill="white"/>
<path d="M790.967 228.55C790.967 168.314 770.106 147.324 710.324 147.324C650.542 147.324 628.118 174.639 628.118 242.59C628.118 316.726 648.582 341.4 714.665 341.4C762.243 341.4 782.333 326.967 788.984 286.33H743.762C738.652 298.841 733.145 301.575 713.871 301.575C684.773 301.575 677.283 293.373 675.72 258.622H787.724C789.66 248.706 790.734 238.651 790.967 228.55ZM676.116 221.901C676.513 195.744 687.13 185.968 712.284 185.968C737.439 185.968 746.119 195.744 746.912 221.901H676.116Z" fill="white"/>
<path d="M429.498 150.058H355.949V94.2002H309.141V336.326H355.949V191.829H422.801V336.326H469.609V187.937H429.498V150.058Z" fill="white"/>
<path d="M817.312 158.236V336.326H864.12V189.814H920.355V150.058H864.12V144.961C864.516 134.026 867.27 130.921 876.324 130.921H927.449V94.2002H872.38C835.022 94.2002 817.312 105.529 817.312 158.236Z" fill="white"/>
<path d="M504.214 336.326H551.022V193.775H620.651V150.058H504.214V336.326Z" fill="white"/>
</g>
<defs>
<clipPath id="clip0_1824_1434">
<rect width="967.2" height="247.2" fill="white" transform="translate(116.4 94.2002)"/>
</clipPath>
</defs>
</svg>
